<svg xmlns="http://www.w3.org/2000/svg" xmlns:xlink="http://www.w3.org/1999/xlink" width="97" height="33" viewBox="0 0 97 33"><defs><path id="6qsha" d="M84 38.5C84 47.613 76.613 55 67.5 55S51 47.613 51 38.5 58.387 22 67.5 22 84 29.387 84 38.5m-16.056 9.576a2.652 2.652 0 0 0 2.12-4.243l-7.956-10.607a2.652 2.652 0 0 0-4.243 3.182l7.956 10.607a2.648 2.648 0 0 0 2.123 1.061m4.57-10.313a2.95 2.95 0 0 0 1.127-.226 2.93 2.93 0 0 0 1.765-2.146c.039-.188.06-.383.06-.574 0-.775-.316-1.535-.866-2.083a2.902 2.902 0 0 0-.959-.636 2.903 2.903 0 0 0-2.255 0 2.902 2.902 0 0 0-.959.636 2.966 2.966 0 0 0-.864 2.083c0 .191.02.386.058.574.036.189.095.374.169.551.073.18.165.351.271.51a2.83 2.83 0 0 0 .815.814c.16.106.33.197.51.27a2.95 2.95 0 0 0 1.128.227"/></defs><g><g transform="translate(-51 -22)"><g fill="#fff" font-family="'Montserrat Medium','Montserrat-Medium'" font-size="24"><text dominant-baseline="text-before-edge" font-family="Helvetica, Arial, sans-serif" transform="translate(94 25)"><tspan>Vest</tspan></text></g></g><g transform="translate(-51 -22)"><use fill="#fff" xlink:href="#6qsha"/></g></g></svg>