<svg xmlns="http://www.w3.org/2000/svg" xmlns:xlink="http://www.w3.org/1999/xlink" width="90" height="90" viewBox="0 0 90 90"><defs><path id="5rwva" d="M301 1059c0-24.853 20.147-45 45-45s45 20.147 45 45-20.147 45-45 45-45-20.147-45-45z"/><path id="5rwvb" d="M358.8 1086H333.2a3.2 3.2 0 0 1-3.2-3.199v-46.602a3.2 3.2 0 0 1 3.2-3.199H358.8a3.2 3.2 0 0 1 3.199 3.199v46.602a3.2 3.2 0 0 1-3.2 3.199"/><path id="5rwvc" d="M330 1079h32v-39h-32z"/><path id="5rwvd" d="M346 1050v10"/><path id="5rwve" d="M355 1068h-18"/><path id="5rwvf" d="M341 1058h10l-5 6z"/></defs><g><g transform="translate(-301 -1014)"><use fill="#21ce99" xlink:href="#5rwva"/></g><g transform="translate(-301 -1014)"><use fill="#040d14" xlink:href="#5rwvb"/></g><g transform="translate(-301 -1014)"><use fill="#fff" xlink:href="#5rwvc"/></g><g transform="translate(-301 -1014)"><use fill="#fff" fill-opacity="0" stroke="#21ce99" stroke-miterlimit="50" stroke-width="2" xlink:href="#5rwvd"/></g><g transform="translate(-301 -1014)"><use fill="#fff" fill-opacity="0" stroke="#21ce99" stroke-miterlimit="50" stroke-width="2" xlink:href="#5rwve"/></g><g transform="translate(-301 -1014)"><use fill="#21ce99" xlink:href="#5rwvf"/></g></g></svg>