<svg xmlns="http://www.w3.org/2000/svg" xmlns:xlink="http://www.w3.org/1999/xlink" width="90" height="90" viewBox="0 0 90 90"><defs><path id="8tota" d="M656 1070c0-24.853 20.147-45 45-45s45 20.147 45 45-20.147 45-45 45-45-20.147-45-45z"/><path id="8totb" d="M721.044 1089.012h-34.063a4.505 4.505 0 0 1-4.511-4.498v-22.565a4.505 4.505 0 0 1 4.511-4.499h34.063a4.505 4.505 0 0 1 4.512 4.498v22.566a4.505 4.505 0 0 1-4.512 4.498"/><path id="8totc" d="M713.575 1081.562h-34.063a4.505 4.505 0 0 1-4.512-4.498v-22.566a4.505 4.505 0 0 1 4.512-4.498h34.063a4.505 4.505 0 0 1 4.511 4.498v22.566a4.505 4.505 0 0 1-4.511 4.498"/><path id="8totd" d="M675 1062.274h43.086v-5.26H675z"/><path id="8tote" d="M687.31 1072.357a3.951 3.951 0 0 1-3.957 3.945 3.951 3.951 0 0 1-3.956-3.945 3.951 3.951 0 0 1 3.956-3.946 3.951 3.951 0 0 1 3.957 3.946"/><path id="8totf" d="M692.596 1072.357a3.954 3.954 0 0 1-3.962 3.945 3.954 3.954 0 0 1-3.962-3.945 3.954 3.954 0 0 1 3.962-3.946 3.954 3.954 0 0 1 3.962 3.946"/></defs><g><g transform="translate(-656 -1025)"><use fill="#21ce99" xlink:href="#8tota"/></g><g clip-path="url(#clip-C7FCD758-3B61-4D3C-8210-B983F8B12780)" transform="translate(-656 -1025)"><use fill="#fff" xlink:href="#8totb"/></g><g transform="translate(-656 -1025)"><use fill="#040d14" xlink:href="#8totc"/></g><g clip-path="url(#clip-B9DAE2E2-90A0-4EB8-85BA-F18142463428)" transform="translate(-656 -1025)"><use fill="#363d43" xlink:href="#8totd"/></g><g clip-path="url(#clip-B9DAE2E2-90A0-4EB8-85BA-F18142463428)" transform="translate(-656 -1025)"><use fill="#21ce99" xlink:href="#8tote"/></g><g clip-path="url(#clip-B9DAE2E2-90A0-4EB8-85BA-F18142463428)" transform="translate(-656 -1025)"><use fill="#fff" xlink:href="#8totf"/></g></g></svg>