<svg xmlns="http://www.w3.org/2000/svg" xmlns:xlink="http://www.w3.org/1999/xlink" width="90" height="90" viewBox="0 0 90 90"><defs><path id="nifta" d="M1011 1070c0-24.853 20.147-45 45-45s45 20.147 45 45-20.147 45-45 45-45-20.147-45-45z"/><path id="niftb" d="M1070.977 1073.95c0 10.76-8.725 19.483-19.488 19.483-10.764 0-19.489-8.723-19.489-19.483 0-10.761 8.725-19.484 19.489-19.484 10.763 0 19.488 8.723 19.488 19.484"/><path id="niftc" d="M1080.433 1064.489c0 10.763-8.723 19.488-19.483 19.488-10.761 0-19.484-8.725-19.484-19.488 0-10.764 8.723-19.489 19.484-19.489 10.76 0 19.483 8.725 19.483 19.489"/><path id="niftd" d="M1051.489 1066.16l6.31 5.196 12.621-14.106"/></defs><g><g transform="translate(-1011 -1025)"><use fill="#21ce99" xlink:href="#nifta"/></g><g transform="translate(-1011 -1025)"><use fill="#040d14" xlink:href="#niftb"/></g><g transform="translate(-1011 -1025)"><use fill="#fff" xlink:href="#niftc"/></g><g transform="translate(-1011 -1025)"><use fill="#fff" fill-opacity="0" stroke="#21ce99" stroke-miterlimit="50" stroke-width="3" xlink:href="#niftd"/></g></g></svg>